<svg width="78" height="46" viewBox="0 0 78 46" fill="none" xmlns="http://www.w3.org/2000/svg">
<g id="Group 3">
<path id="Vector" opacity="0.9" d="M76.3537 28.7647C76.3537 37.3287 67.9197 44.2686 57.5173 44.2686H19.8444C9.44189 44.2686 1.0079 37.3287 1.0079 28.7647C1.0079 20.2007 9.44189 13.2555 19.8444 13.2555H19.855C23.1945 6.49194 29.7934 1.88672 37.3899 1.88672C45.0397 1.88672 51.6812 6.55604 54.9994 13.3944C55.8209 13.3036 56.6638 13.2555 57.5173 13.2555C67.9197 13.2555 76.3537 20.2007 76.3537 28.7647Z" stroke="#444444" stroke-width="2" stroke-miterlimit="10"/>
<path id="Vector_2" d="M25.9336 25.1328L29.2001 16.2303" stroke="#444444" stroke-width="2" stroke-linecap="round" stroke-linejoin="round"/>
<path id="Vector_3" d="M33.6558 29.925L38.6808 16.2303" stroke="#444444" stroke-width="2" stroke-linecap="round" stroke-linejoin="round"/>
<path id="Vector_4" d="M44.8949 25.1328L48.1614 16.2303" stroke="#444444" stroke-width="2" stroke-linecap="round" stroke-linejoin="round"/>
</g>
</svg>
