<svg width="78" height="62" viewBox="0 0 78 62" fill="none" xmlns="http://www.w3.org/2000/svg">
<g id="Group" opacity="0.9">
<path id="Vector" opacity="0.9" d="M35.1959 44.3444H20.4952C10.0928 44.3444 1.66029 37.4033 1.66029 28.8426C1.66029 20.2758 10.0928 13.3347 20.4952 13.3347H20.5074C23.8451 6.57012 30.4416 1.96094 38.0412 1.96094C45.6895 1.96094 52.3286 6.63099 55.6481 13.4687C56.4688 13.3833 57.314 13.3347 58.1651 13.3347C68.5675 13.3347 77 20.2758 77 28.8426C77 37.4033 68.5675 44.3444 58.1651 44.3444H42.5098" stroke="#444444" stroke-width="2" stroke-miterlimit="10"/>
<path id="Vector_2" d="M49.6176 35.474L43.9209 42.2203L29.8449 60.3101L36.607 42.2203L38.048 38.3722H27.8462L35.2756 23.1526H46.2069L42.322 35.0478L49.6176 35.474Z" stroke="#444444" stroke-width="2" stroke-linecap="round" stroke-linejoin="round"/>
</g>
</svg>
